PathFileType	4	(X/Y/Z)	Walk4.trc
DataRate	CameraRate	NumFrames	NumMarkers	Units	OrigDataRate	OrigDataStartFrame	OrigNumFrames
200.000000	200.000000	4	59	mm	200.000000	520	559
Frame#	Times		LFHD		C7		CLAV		STRN		RBack		RASI		RACR1		RUA1		RElbow		RFA1		RWRU		RCAR		LACR1		LUA1		LFA1		LWRR		LCAR		RTH1		RTH3		RTH2		RLFC		LTH1		LTH3		LTH2		LTH4		LLFC		LTB1		LTB3		LTB4		LMT1		LToe		T10		RTH4		LMMAL		LTB2		LMT5		RFHD		RPSI		RWRR		RToe		LLMAL		LElbow		LPSI		RBHD		RTB1		LBHD		LWRU		LElbowM		RTB2		RTB4		RTB3		RMT1		LASI		RMMAL		RLMAL		RMT5		RCAL		LCAL		RElbowM
			X1	Y1	Z1	X2	Y2	Z2	X3	Y3	Z3	X4	Y4	Z4	X5	Y5	Z5	X6	Y6	Z6	X7	Y7	Z7	X8	Y8	Z8	X9	Y9	Z9	X10	Y10	Z10	X11	Y11	Z11	X12	Y12	Z12	X13	Y13	Z13	X14	Y14	Z14	X15	Y15	Z15	X16	Y16	Z16	X17	Y17	Z17	X18	Y18	Z18	X19	Y19	Z19	X20	Y20	Z20	X21	Y21	Z21	X22	Y22	Z22	X23	Y23	Z23	X24	Y24	Z24	X25	Y25	Z25	X26	Y26	Z26	X27	Y27	Z27	X28	Y28	Z28	X29	Y29	Z29	X30	Y30	Z30	X31	Y31	Z31	X32	Y32	Z32	X33	Y33	Z33	X34	Y34	Z34	X35	Y35	Z35	X36	Y36	Z36	X37	Y37	Z37	X38	Y38	Z38	X39	Y39	Z39	X40	Y40	Z40	X41	Y41	Z41	X42	Y42	Z42	X43	Y43	Z43	X44	Y44	Z44	X45	Y45	Z45	X46	Y46	Z46	X47	Y47	Z47	X48	Y48	Z48	X49	Y49	Z49	X50	Y50	Z50	X51	Y51	Z51	X52	Y52	Z52	X53	Y53	Z53	X54	Y54	Z54	X55	Y55	Z55	X56	Y56	Z56	X57	Y57	Z57	X58	Y58	Z58	X59	Y59	Z59

520	2.6	955.55	1597.7	-69.651	787	1429.3	-40.094	914.38	1354.1	-45.422	995.42	1132.4	-39.588	746.41	1323.5	57.293	950.35	964.25	107.24	863.68	1365.3	129.43	833.84	1155.4	192.99	805.78	1051.1	216.97	863.21	908.66	225.96	832.01	801.3	246.52	877.02	758.61	240.94	851.07	1366.2	-213.71	845.32	1156.5	-260.09	901.42	920.34	-272.65	927.22	806.37	-230.09	935.21	764.54	-273.15	894.77	762.47	156.32	964.12	588.63	124.01	992.37	706.79	121.67	987.91	501.59	110.07	845.57	739.03	-188.31	863.81	557.91	-145.76	926.5	654.45	-142.76	853.46	644.13	-166.38	861.1	449.6	-130.16	875.68	349.96	-48.184	825.28	169.31	-43.387	852.23	257.54	-49.463	911.62	38.38	-47.995	958.45	28.942	-75.956	760.16	1144.1	-34.231	930.43	675.35	139.76	782.66	75.42	-7.3082	830.89	262.23	-118.13	872.72	21.159	-125.23	961.05	1598.1	3.2693	734.38	987	42.09	878.79	802.93	189.86	937.5	43.673	108.18	765.78	63.001	-87.624	835.82	1036.8	-273.28	730.56	983.53	-72.279	789.58	1557.1	35.797	980.27	375.77	47.453	785.94	1567.9	-93.124	883.95	799.76	-287.01	803.83	1023	-210.8	909.28	315.78	114.61	926.99	299.67	47.678	874.69	223.88	47.758	911.17	60.406	71.949	942.29	950.09	-164.57	815.46	153.79	19.535	780.97	153.27	93.802	853.88	58.993	132.19	732.33	137.97	40.193	715.53	31.917	-32.785	787.85	1029.7	134.86
521	2.605	960.82	1597.6	-69.523	792.06	1429.2	-40.069	919.41	1354	-45.549	1000.4	1132.4	-40.118	751.48	1323.4	57.183	955.76	964.62	106.68	868.79	1365	129.35	838.1	1155.2	192.76	809.7	1051	216.58	866.24	908.3	225.98	834.25	801.15	246.63	878.95	758.1	241.22	856	1366.4	-213.76	851.28	1156.8	-260.59	909.38	921.24	-273.05	936.52	807.75	-230.26	945.12	765.99	-273.23	900.59	762.94	156.55	970.79	589.55	123.84	998.39	707.85	121.66	994.81	502.26	109.85	849.59	738.7	-188.23	866.99	557.51	-145.61	930.13	653.72	-142.66	857.08	643.72	-166.2	863.71	449.2	-129.96	877.63	349.46	-47.966	826.03	169.11	-43.245	853.57	257.17	-49.264	911.64	38.379	-48.002	958.55	28.946	-75.977	765.2	1144	-34.455	936.61	676.04	139.83	782.9	75.419	-7.1846	832.38	261.98	-117.97	872.71	21.145	-125.23	966.32	1597.9	3.397	739.52	987.05	42.011	881.21	802.35	190.1	956.17	43.076	108.88	765.98	63.197	-87.544	842.48	1037	-274.05	735.53	983.43	-72.312	794.8	1557	35.87	990.12	375.97	47.307	791.19	1567.9	-93.05	893.42	800.47	-287.27	810.46	1022.9	-211.66	920.46	314.22	114.13	938.94	298.44	47.347	888.7	221.3	47.263	929.72	59.2	72.34	947.38	949.9	-164.7	831.61	149.6	18.8	796.7	148.27	92.864	871.9	56.309	132.13	748.85	131.42	39.023	715.59	32.197	-32.665	792.03	1029.7	134.36
522	2.61	966.08	1597.4	-69.381	797.12	1429.1	-40.028	924.44	1353.9	-45.666	1005.3	1132.3	-40.632	756.56	1323.2	57.091	961.15	964.91	106.15	873.91	1364.7	129.29	842.39	1155	192.55	813.66	1050.8	216.22	869.32	907.89	226.01	836.56	800.94	246.74	880.94	757.55	241.49	860.92	1366.6	-213.8	857.21	1157.1	-261.09	917.31	922.11	-273.46	945.79	809.11	-230.42	955	767.43	-273.29	906.37	763.34	156.8	977.36	590.36	123.67	1004.3	708.8	121.63	1001.6	502.78	109.65	853.64	738.34	-188.16	870.23	557.09	-145.47	933.8	652.97	-142.54	860.73	643.29	-166.02	866.37	448.77	-129.76	879.61	348.93	-47.744	826.81	168.89	-43.099	854.94	256.79	-49.058	911.67	38.375	-48.006	958.65	28.949	-76	770.25	1143.8	-34.664	942.71	676.64	139.92	783.16	75.409	-7.0438	833.9	261.71	-117.82	872.69	21.133	-125.22	971.57	1597.6	3.5383	744.66	987.05	41.944	883.68	801.73	190.33	974.95	42.57	109.62	766.19	63.397	-87.463	849.11	1037.2	-274.81	740.5	983.29	-72.33	800.01	1556.8	35.956	999.84	376.1	47.167	796.43	1567.9	-92.961	902.87	801.16	-287.51	817.1	1022.8	-212.49	931.65	312.57	113.68	950.86	297.17	47.03	902.78	218.71	46.786	948.38	58.092	72.773	952.47	949.62	-164.79	847.95	145.41	18.088	812.63	143.24	91.947	890.07	53.672	132.09	765.63	124.84	37.863	715.65	32.491	-32.543	796.27	1029.6	133.9
523	2.615	971.33	1597.1	-69.225	802.18	1429	-39.972	929.47	1353.7	-45.774	1010.3	1132.1	-41.13	761.65	1323	57.014	966.51	965.1	105.64	879.03	1364.3	129.24	846.71	1154.7	192.37	817.67	1050.6	215.88	872.45	907.42	226.07	838.94	800.69	246.86	883.01	756.95	241.75	865.84	1366.7	-213.82	863.11	1157.3	-261.58	925.19	922.95	-273.87	955.02	810.47	-230.56	964.85	768.87	-273.33	912.11	763.66	157.06	983.81	591.07	123.51	1010.2	709.63	121.58	1008.1	503.14	109.49	857.71	737.94	-188.09	873.53	556.65	-145.33	937.49	652.21	-142.4	864.42	642.84	-165.82	869.09	448.31	-129.56	881.64	348.38	-47.52	827.61	168.65	-42.951	856.35	256.39	-48.848	911.7	38.37	-48.006	958.75	28.949	-76.024	775.3	1143.6	-34.857	948.75	677.15	140.01	783.43	75.392	-6.8862	835.46	261.42	-117.65	872.68	21.122	-125.2	976.81	1597.3	3.6929	749.82	987	41.891	886.22	801.06	190.56	993.82	42.172	110.39	766.4	63.602	-87.381	855.72	1037.4	-275.56	745.48	983.1	-72.332	805.2	1556.6	36.055	1009.4	376.15	47.03	801.66	1567.8	-92.854	912.3	801.84	-287.73	823.76	1022.6	-213.29	942.84	310.81	113.25	962.75	295.86	46.724	916.92	216.1	46.325	967.16	57.102	73.236	957.53	949.24	-164.84	864.47	141.26	17.399	828.75	138.19	91.054	908.38	51.103	132.07	782.66	118.28	36.714	715.71	32.798	-32.418	800.56	1029.4	133.47
